<?xml version="1.0"?>
<svg width="660" height="660" xmlns="http://www.w3.org/2000/svg" xmlns:svg="http://www.w3.org/2000/svg" data-name="Layer 2">
 <defs>
  <style>.cls-1 {
        fill: #e11f27;
        stroke-width: 0px;
      }</style>
 </defs>
 <g class="layer">
  <title>Layer 1</title>
  <g id="svg_16">
   <g id="svg_1">
    <path class="cls-1" d="m74.47,331.66l110.13,0c84.22,0 140.09,55.88 140.09,142.93s-55.88,140.5 -140.09,140.5l-110.13,0l0,-283.42l0,-0.01zm47.78,41.71l0,200.02l57.09,0c59.11,0 98.79,-39.68 98.79,-101.22s-39.68,-98.79 -98.79,-98.79l-57.09,0l0,-0.01z" id="svg_2"/>
    <path class="cls-1" d="m493.53,327.21c47.78,0 87.05,17.41 112.96,46.97l-36.04,29.96c-17.82,-19.44 -46.16,-30.77 -78.14,-30.77c-61.14,0 -100.82,40.89 -100.82,101.22s39.68,102.03 104.06,102.03c25.91,0 48.18,-7.29 65.19,-20.24l0,-81.38l47.78,0l0,102.44l-0.4,0c-25.91,28.34 -65.19,44.54 -112.56,44.54c-91.1,0 -152.24,-59.92 -152.24,-147.38s61.14,-147.38 150.21,-147.38l0,-0.01z" id="svg_3"/>
   </g>
   <path class="cls-1" d="m586.85,73.73c-162.41,74.69 -337.71,74.69 -500.12,0c5.04,-12.28 10.08,-24.57 15.11,-36.85c152.81,69.19 317.09,69.19 469.91,0c5.03,12.29 10.07,24.57 15.11,36.85l-0.01,0z" id="svg_7"/>
   <path class="cls-1" d="m638.32,131.36c-193.72,90.66 -409.34,90.66 -603.07,0c7.54,-15.45 11.31,-23.17 18.85,-38.61c182.18,85.02 383.19,85.03 565.37,0c7.54,15.45 11.31,23.17 18.85,38.61z" id="svg_8"/>
   <rect class="cls-1" height="42.38" id="svg_9" width="581.67" x="45.95" y="255.53"/>
   <g id="svg_10">
    <rect class="cls-1" height="129.89" id="svg_11" width="42.38" x="149.22" y="168.02"/>
    <rect class="cls-1" height="141.41" id="svg_12" width="42.38" x="481.98" y="156.5"/>
    <rect class="cls-1" height="88.38" id="svg_13" width="39.88" x="318.32" y="187.1"/>
   </g>
  </g>
 </g>
</svg>